<?xml version="1.0" encoding="utf-8"?>
<!-- Generator: Adobe Illustrator 16.0.2, SVG Export Plug-In . SVG Version: 6.00 Build 0)  -->
<!DOCTYPE svg PUBLIC "-//W3C//DTD SVG 1.1//EN" "http://www.w3.org/Graphics/SVG/1.1/DTD/svg11.dtd">
<svg version="1.1" id="Table_Download" xmlns="http://www.w3.org/2000/svg" xmlns:xlink="http://www.w3.org/1999/xlink" x="0px"
	 y="0px" width="64px" height="64px" viewBox="0 0 64 64" enable-background="new 0 0 64 64" xml:space="preserve">
<path fill="#187144" d="M53.3,0H10C0,0,0,0,0,10v44c0,10,0,10,10,10h44c10,0,10,0,10-10V10.7C64,0,64,0,53.3,0z"/>
<rect x="5" y="6" fill="#FFFFFF" width="16" height="8"/>
<rect x="5" y="17" fill="#FFFFFF" width="16" height="8"/>
<rect x="5" y="28" fill="#FFFFFF" width="16" height="8"/>
<rect x="5" y="39" fill="#FFFFFF" width="16" height="8"/>
<rect x="5" y="50" fill="#FFFFFF" width="16" height="8"/>
<rect x="24" y="6" fill="#FFFFFF" width="16" height="8"/>
<rect x="24" y="17" fill="#FFFFFF" width="16" height="8"/>
<rect x="24" y="28" fill="#FFFFFF" width="16" height="8"/>
<rect x="24" y="39" fill="#FFFFFF" width="16" height="8"/>
<rect x="24" y="50" fill="#FFFFFF" width="16" height="8"/>
<rect x="43" y="6" fill="#FFFFFF" width="16" height="8"/>
<rect x="43" y="17" fill="#FFFFFF" width="16" height="8"/>
<rect x="43" y="28" fill="#FFFFFF" width="16" height="8"/>
<rect x="43" y="39" fill="#FFFFFF" width="16" height="8"/>
<rect x="43" y="50" fill="#FFFFFF" width="16" height="8"/>
</svg>
